<?xml version="1.0" encoding="UTF-8" standalone="no"?>
<!-- Uploaded to: SVG Repo, www.svgrepo.com, Generator: SVG Repo Mixer Tools -->

<svg
   width="800px"
   height="800px"
   viewBox="0 0 1024 1024"
   class="icon"
   version="1.1"
   id="svg15"
   sodipodi:docname="icon.svg"
   inkscape:version="1.4.1 (1:1.4.1+202503302257+93de688d07)"
   xmlns:inkscape="http://www.inkscape.org/namespaces/inkscape"
   xmlns:sodipodi="http://sodipodi.sourceforge.net/DTD/sodipodi-0.dtd"
   xmlns="http://www.w3.org/2000/svg"
   xmlns:svg="http://www.w3.org/2000/svg">
  <defs
     id="defs15" />
  <sodipodi:namedview
     id="namedview15"
     pagecolor="#ffffff"
     bordercolor="#000000"
     borderopacity="0.25"
     inkscape:showpageshadow="2"
     inkscape:pageopacity="0.0"
     inkscape:pagecheckerboard="0"
     inkscape:deskcolor="#d1d1d1"
     showgrid="false"
     inkscape:zoom="0.065849319"
     inkscape:cx="410.02702"
     inkscape:cy="167.04804"
     inkscape:window-width="1600"
     inkscape:window-height="788"
     inkscape:window-x="0"
     inkscape:window-y="0"
     inkscape:window-maximized="1"
     inkscape:current-layer="svg15" />
  <circle
     style="fill:#464bd8;stroke:#000059;stroke-width:0;stroke-linecap:round;paint-order:stroke markers fill;fill-opacity:1"
     id="path16"
     cx="512"
     cy="512"
     r="451.94089" />
  <path
     d="M 851.5038,864.64861 H 512 c -7.20845,0 -13.14482,-5.79502 -13.14482,-13.14481 0,-7.34979 5.79503,-13.14482 13.14482,-13.14482 h 339.36245 c 7.20845,0 13.14482,5.79503 13.14482,13.14482 0,7.34979 -5.79502,13.14481 -13.00347,13.14481 z"
     fill="#151b28"
     id="path2"
     style="stroke-width:1.41342" />
  <path
     d="m 512,864.64861 c -94.13386,0 -182.75537,-36.60761 -249.32752,-103.17975 -66.57214,-66.57214 -103.17975,-155.05232 -103.17975,-249.32752 0,-94.2752 36.60761,-182.61403 103.17975,-249.32752 C 329.24463,196.24168 417.7248,159.63407 512,159.63407 c 94.2752,0 182.61403,36.60761 249.32752,103.17975 66.57214,66.57215 103.17975,155.05232 103.17975,249.32752 0,94.2752 -36.60761,182.61403 -103.17975,249.32752 C 694.75537,828.041 606.2752,864.64861 512,864.64861 Z"
     fill="#ffffff"
     id="path3"
     style="stroke-width:1.41342" />
  <path
     d="m 512,172.77889 c 187.41966,0 339.36245,151.94279 339.36245,339.36245 0,187.41967 -151.80144,339.36246 -339.36245,339.36246 -187.41966,0 -339.36245,-151.94279 -339.36245,-339.36246 0,-187.41966 151.94279,-339.36245 339.36245,-339.36245 m 0,-26.28964 c -49.3284,0 -97.24339,9.61127 -142.33153,28.69245 -43.53337,18.37448 -82.68514,44.80546 -116.18323,78.30354 C 219.84582,287.12467 193.55618,326.1351 175.1817,369.66847 156.10052,414.75661 146.48925,462.6716 146.48925,512 c 0,49.3284 9.61127,97.24339 28.69245,142.33153 18.37448,43.53337 44.80546,82.68514 78.30354,116.18323 33.63943,33.63942 72.64986,59.92906 116.18323,78.30354 45.08814,19.08118 93.00313,28.69245 142.33153,28.69245 49.3284,0 97.24339,-9.61127 142.33153,-28.69245 43.53337,-18.37448 82.68514,-44.80546 116.18323,-78.30354 C 804.15418,736.87533 830.44382,697.8649 848.8183,654.33153 867.89948,609.24339 877.51075,561.3284 877.51075,512 c 0,-49.3284 -9.61127,-97.24339 -28.69245,-142.33153 C 830.44382,326.1351 804.01284,286.98333 770.51476,253.48524 736.87533,219.84582 697.8649,193.55618 654.33153,175.1817 609.24339,156.24186 561.46975,146.48925 512,146.48925 Z"
     fill="#151b28"
     id="path4"
     style="stroke-width:1.41342" />
  <path
     d="m 542.67124,530.23313 m -303.03752,0 a 303.03753,303.03753 0 1 0 606.07505,0 303.03753,303.03753 0 1 0 -606.07505,0 z"
     fill="#2aefc8"
     id="path5"
     style="stroke-width:1.41342" />
  <path
     d="m 512,346.91239 m -79.01025,0 a 79.010251,79.010251 0 1 0 158.0205,0 79.010251,79.010251 0 1 0 -158.0205,0 z"
     fill="#ffffff"
     id="path6"
     style="stroke-width:1.41342" />
  <path
     d="m 512,280.90562 c 36.46627,0 66.00677,29.5405 66.00677,66.00677 0,36.46627 -29.5405,66.00678 -66.00677,66.00678 -36.46627,0 -66.00677,-29.54051 -66.00677,-66.00678 0,-36.46627 29.68184,-66.00677 66.00677,-66.00677 m 0,-26.1483 c -50.88317,0 -92.15507,41.41325 -92.15507,92.15507 0,50.74183 41.41325,92.15507 92.15507,92.15507 50.88317,0 92.15507,-41.41324 92.15507,-92.15507 0,-50.74182 -41.2719,-92.15507 -92.15507,-92.15507 z"
     fill="#151b28"
     id="path7"
     style="stroke-width:1.41342" />
  <path
     d="M 290.90569,568.05198 A 79.010253,79.010253 0 1 0 402.64306,456.31461 79.010253,79.010253 0 1 0 290.90569,568.05198 Z"
     fill="#ffffff"
     id="path8"
     style="stroke-width:1.41342" />
  <path
     d="m 346.77105,446.13457 c 36.46627,0 66.00677,29.5405 66.00677,66.00677 0,36.46627 -29.5405,66.00678 -66.00677,66.00678 -36.46627,0 -66.00677,-29.54051 -66.00677,-66.00678 0.14134,-36.46627 29.68184,-66.00677 66.00677,-66.00677 m 0,-26.1483 c -50.88317,0 -92.15507,41.41325 -92.15507,92.15507 0,50.74183 41.41325,92.15507 92.15507,92.15507 50.88317,0 92.15507,-41.41324 92.15507,-92.15507 0,-50.74182 -41.2719,-92.15507 -92.15507,-92.15507 z"
     fill="#151b28"
     id="path9"
     style="stroke-width:1.41342" />
  <path
     d="m 512,756.38054 c -43.53338,0 -79.01025,-35.47687 -79.01025,-79.01025 0,-43.53337 35.47687,-79.01025 79.01025,-79.01025 43.53338,0 79.01025,35.47688 79.01025,79.01025 0,43.53338 -35.33553,79.01025 -79.01025,79.01025 z"
     fill="#ffffff"
     id="path10"
     style="stroke-width:1.41342" />
  <path
     d="m 512,611.36352 c 36.46627,0 66.00677,29.5405 66.00677,66.00677 0,36.46627 -29.5405,66.00678 -66.00677,66.00678 -36.46627,0 -66.00677,-29.54051 -66.00677,-66.00678 0,-36.46627 29.68184,-66.00677 66.00677,-66.00677 m 0,-26.1483 c -50.88317,0 -92.15507,41.41325 -92.15507,92.15507 0,50.74183 41.41325,92.15507 92.15507,92.15507 50.88317,0 92.15507,-41.41324 92.15507,-92.15507 0,-50.74182 -41.2719,-92.15507 -92.15507,-92.15507 z"
     fill="#151b28"
     id="path11"
     style="stroke-width:1.41342" />
  <path
     d="m 677.37029,591.15159 c -43.53337,0 -79.01025,-35.47687 -79.01025,-79.01025 0,-43.53337 35.47688,-79.01025 79.01025,-79.01025 43.53338,0 79.01025,35.47688 79.01025,79.01025 0,43.53338 -35.47687,79.01025 -79.01025,79.01025 z"
     fill="#ffffff"
     id="path12"
     style="stroke-width:1.41342" />
  <path
     d="m 677.37029,446.13457 c 36.46627,0 66.00678,29.5405 66.00678,66.00677 0,36.46627 -29.54051,66.00678 -66.00678,66.00678 -36.46627,0 -66.00677,-29.54051 -66.00677,-66.00678 0,-36.46627 29.5405,-66.00677 66.00677,-66.00677 m 0,-26.1483 c -50.88316,0 -92.15507,41.41325 -92.15507,92.15507 0,50.74183 41.41325,92.15507 92.15507,92.15507 50.88317,0 92.15507,-41.41324 92.15507,-92.15507 0,-50.74182 -41.41324,-92.15507 -92.15507,-92.15507 z"
     fill="#151b28"
     id="path13"
     style="stroke-width:1.41342" />
  <path
     d="m 512,512.14134 m -30.5299,0 a 30.5299,30.5299 0 1 0 61.0598,0 30.5299,30.5299 0 1 0 -61.0598,0 z"
     fill="#464bd8"
     id="path14"
     style="stroke-width:1.41342" />
  <path
     d="m 512,481.61144 c 16.81971,0 30.5299,13.71019 30.5299,30.5299 0,16.81972 -13.71019,30.5299 -30.5299,30.5299 -16.81971,0 -30.5299,-13.71018 -30.5299,-30.5299 0,-16.81971 13.71019,-30.5299 30.5299,-30.5299 m 0,-26.14829 c -31.23661,0 -56.81954,25.44158 -56.81954,56.81953 0,31.23662 25.44159,56.81954 56.81954,56.81954 31.23661,0 56.81954,-25.44158 56.81954,-56.81954 0,-31.37795 -25.44159,-56.81953 -56.81954,-56.81953 z"
     fill="#151b28"
     id="path15"
     style="stroke-width:1.41342" />
</svg>
